<?xml version="1.0" encoding="UTF-8" standalone="no"?>
<svg
   xmlns:dc="http://purl.org/dc/elements/1.1/"
   xmlns:cc="http://creativecommons.org/ns#"
   xmlns:rdf="http://www.w3.org/1999/02/22-rdf-syntax-ns#"
   xmlns:svg="http://www.w3.org/2000/svg"
   xmlns="http://www.w3.org/2000/svg"
   xmlns:sodipodi="http://sodipodi.sourceforge.net/DTD/sodipodi-0.dtd"
   xmlns:inkscape="http://www.inkscape.org/namespaces/inkscape"
   viewBox="0 0 1249.9994 431.83649"
   height="431.83649"
   width="1249.9994"
   xml:space="preserve"
   version="1.1"
   id="svg2"
   sodipodi:docname="logo_oper.svg"
   inkscape:version="0.92.2 5c3e80d, 2017-08-06"><sodipodi:namedview
     pagecolor="#ffffff"
     bordercolor="#666666"
     borderopacity="1"
     objecttolerance="10"
     gridtolerance="10"
     guidetolerance="10"
     inkscape:pageopacity="0"
     inkscape:pageshadow="2"
     inkscape:window-width="1280"
     inkscape:window-height="755"
     id="namedview13"
     showgrid="false"
     inkscape:zoom="1"
     inkscape:cx="320.88524"
     inkscape:cy="250.97409"
     inkscape:window-x="0"
     inkscape:window-y="1"
     inkscape:window-maximized="1"
     inkscape:current-layer="svg2" /><metadata
     id="metadata8"><rdf:RDF><cc:Work
         rdf:about=""><dc:format>image/svg+xml</dc:format><dc:type
           rdf:resource="http://purl.org/dc/dcmitype/StillImage" /><dc:title></dc:title></cc:Work></rdf:RDF></metadata><defs
     id="defs6" /><g
     transform="matrix(1.25,0,0,-1.25,-86.34375,518.17875)"
     id="g10"><path
       id="path14"
       style="fill:#00ade9;fill-opacity:1;fill-rule:nonzero;stroke:none"
       d="m 138.149,207.255 69.075,0 0,-69.075 -69.075,0 0,69.075 z m 138.15,69.107 -138.15,0 0,138.181 -69.074,0 0,-345.469 276.299,0 0,69.106 -69.075,0 0,138.182 z" /><g
       transform="translate(425.4331,414.543)"
       id="g16"><path
         id="path18"
         style="fill:#00ade9;fill-opacity:1;fill-rule:nonzero;stroke:none"
         d="m 0,0 -69.075,0 0,-345.469 138.15,0 0,69.106 -69.075,0 L 0,0 Z" /></g><g
       transform="translate(712.6958,276.3618)"
       id="g20"><path
         id="path22"
         style="fill:#00ade9;fill-opacity:1;fill-rule:nonzero;stroke:none"
         d="m 0,0 -69.075,0 0,-138.182 -69.074,0 0,138.182 -69.076,0 0,-207.288 276.299,0 0,69.106 -69.074,0 L 0,0 Z" /></g><g
       transform="translate(1000.0005,138.1797)"
       id="g24"><path
         id="path26"
         style="fill:#00ade9;fill-opacity:1;fill-rule:nonzero;stroke:none"
         d="m 0,0 0,138.182 -69.075,0 0,-138.182 -69.074,0 0,138.182 -69.076,0 0,-207.287 276.299,0 L 69.074,0 0,0 Z" /></g></g><rect
     style="fill:#ef3925;stroke-width:2.57130647"
     id="rect3361"
     width="271.6301"
     height="76.623146"
     x="-115.03477"
     y="59.426369"
     ry="0"
     transform="matrix(0.75315,-0.65784882,0.64978315,0.76011964,0,0)" /><text
     xml:space="preserve"
     style="font-style:normal;font-weight:normal;font-size:33.48706436px;line-height:0%;font-family:sans-serif;letter-spacing:0px;word-spacing:0px;fill:#ffffff;fill-opacity:1;stroke:none;stroke-width:2.79058862px;stroke-linecap:butt;stroke-linejoin:miter;stroke-opacity:1"
     x="-69.236885"
     y="122.2059"
     id="text3363"
     transform="matrix(0.750168,-0.66444813,0.69325466,0.7189966,0,0)"><tspan
       sodipodi:role="line"
       id="tspan3365"
       x="-69.236885"
       y="122.2059"
       style="font-size:68.87187195px;line-height:1.25;stroke-width:2.79058862px">DEV</tspan></text>
</svg>